<svg width="450" height="450" viewBox="0 0 450 450" fill="none" xmlns="http://www.w3.org/2000/svg">
<path d="M295.038 41.742C295.038 41.742 228.933 22.284 163.638 61.65C98.3432 101.016 65.0972 174.447 36.5402 233.352C7.98317 292.257 23.8142 349.974 73.2782 374.211C122.742 398.448 156.771 357.462 226.431 352.125C296.091 346.788 314.757 355.464 372.798 314.685C430.839 273.906 441.9 183.771 396.729 119.7C351.558 55.629 295.038 41.742 295.038 41.742Z" fill="#0C9A61"/>
<path opacity="0.7" d="M295.038 41.742C295.038 41.742 228.933 22.284 163.638 61.65C98.3432 101.016 65.0972 174.447 36.5402 233.352C7.98317 292.257 23.8142 349.974 73.2782 374.211C122.742 398.448 156.771 357.462 226.431 352.125C296.091 346.788 314.757 355.464 372.798 314.685C430.839 273.906 441.9 183.771 396.729 119.7C351.558 55.629 295.038 41.742 295.038 41.742Z" fill="white"/>
<path d="M41.355 362.43H413.928" stroke="#263238" stroke-width="0.9" stroke-linecap="round" stroke-linejoin="round"/>
<path d="M41.355 370.971H413.928" stroke="#263238" stroke-width="0.9" stroke-linecap="round" stroke-linejoin="round"/>
<path d="M67.9228 219.249H46.5568C44.504 219.249 42.8398 220.913 42.8398 222.966V244.332C42.8398 246.385 44.504 248.049 46.5568 248.049H67.9228C69.9757 248.049 71.6398 246.385 71.6398 244.332V222.966C71.6398 220.913 69.9757 219.249 67.9228 219.249Z" stroke="#263238" stroke-width="0.9" stroke-linecap="round" stroke-linejoin="round"/>
<path d="M99.1621 219.249H77.7961C75.7433 219.249 74.0791 220.913 74.0791 222.966V244.332C74.0791 246.385 75.7433 248.049 77.7961 248.049H99.1621C101.215 248.049 102.879 246.385 102.879 244.332V222.966C102.879 220.913 101.215 219.249 99.1621 219.249Z" stroke="#263238" stroke-width="0.9" stroke-linecap="round" stroke-linejoin="round"/>
<path d="M130.401 219.249H109.035C106.982 219.249 105.318 220.913 105.318 222.966V244.332C105.318 246.385 106.982 248.049 109.035 248.049H130.401C132.454 248.049 134.118 246.385 134.118 244.332V222.966C134.118 220.913 132.454 219.249 130.401 219.249Z" stroke="#263238" stroke-width="0.9" stroke-linecap="round" stroke-linejoin="round"/>
<path d="M161.631 219.249H140.265C138.212 219.249 136.548 220.913 136.548 222.966V244.332C136.548 246.385 138.212 248.049 140.265 248.049H161.631C163.684 248.049 165.348 246.385 165.348 244.332V222.966C165.348 220.913 163.684 219.249 161.631 219.249Z" stroke="#263238" stroke-width="0.9" stroke-linecap="round" stroke-linejoin="round"/>
<path d="M192.87 219.249H171.504C169.451 219.249 167.787 220.913 167.787 222.966V244.332C167.787 246.385 169.451 248.049 171.504 248.049H192.87C194.923 248.049 196.587 246.385 196.587 244.332V222.966C196.587 220.913 194.923 219.249 192.87 219.249Z" stroke="#263238" stroke-width="0.9" stroke-linecap="round" stroke-linejoin="round"/>
<path d="M224.109 219.249H202.743C200.69 219.249 199.026 220.913 199.026 222.966V244.332C199.026 246.385 200.69 248.049 202.743 248.049H224.109C226.162 248.049 227.826 246.385 227.826 244.332V222.966C227.826 220.913 226.162 219.249 224.109 219.249Z" stroke="#263238" stroke-width="0.9" stroke-linecap="round" stroke-linejoin="round"/>
<path d="M255.339 219.249H233.973C231.921 219.249 230.256 220.913 230.256 222.966V244.332C230.256 246.385 231.921 248.049 233.973 248.049H255.339C257.392 248.049 259.056 246.385 259.056 244.332V222.966C259.056 220.913 257.392 219.249 255.339 219.249Z" stroke="#263238" stroke-width="0.9" stroke-linecap="round" stroke-linejoin="round"/>
<path d="M286.578 219.249H265.212C263.159 219.249 261.495 220.913 261.495 222.966V244.332C261.495 246.385 263.159 248.049 265.212 248.049H286.578C288.631 248.049 290.295 246.385 290.295 244.332V222.966C290.295 220.913 288.631 219.249 286.578 219.249Z" stroke="#263238" stroke-width="0.9" stroke-linecap="round" stroke-linejoin="round"/>
<path d="M317.817 219.249H296.451C294.399 219.249 292.734 220.913 292.734 222.966V244.332C292.734 246.385 294.399 248.049 296.451 248.049H317.817C319.87 248.049 321.534 246.385 321.534 244.332V222.966C321.534 220.913 319.87 219.249 317.817 219.249Z" stroke="#263238" stroke-width="0.9" stroke-linecap="round" stroke-linejoin="round"/>
<path d="M349.047 219.249H327.681C325.628 219.249 323.964 220.913 323.964 222.966V244.332C323.964 246.385 325.628 248.049 327.681 248.049H349.047C351.1 248.049 352.764 246.385 352.764 244.332V222.966C352.764 220.913 351.1 219.249 349.047 219.249Z" stroke="#263238" stroke-width="0.9" stroke-linecap="round" stroke-linejoin="round"/>
<path d="M380.286 219.249H358.92C356.867 219.249 355.203 220.913 355.203 222.966V244.332C355.203 246.385 356.867 248.049 358.92 248.049H380.286C382.339 248.049 384.003 246.385 384.003 244.332V222.966C384.003 220.913 382.339 219.249 380.286 219.249Z" stroke="#263238" stroke-width="0.9" stroke-linecap="round" stroke-linejoin="round"/>
<path d="M411.525 219.249H390.159C388.107 219.249 386.442 220.913 386.442 222.966V244.332C386.442 246.385 388.107 248.049 390.159 248.049H411.525C413.578 248.049 415.242 246.385 415.242 244.332V222.966C415.242 220.913 413.578 219.249 411.525 219.249Z" stroke="#263238" stroke-width="0.9" stroke-linecap="round" stroke-linejoin="round"/>
<path d="M67.9228 250.029H46.5568C44.504 250.029 42.8398 251.693 42.8398 253.746V275.112C42.8398 277.165 44.504 278.829 46.5568 278.829H67.9228C69.9757 278.829 71.6398 277.165 71.6398 275.112V253.746C71.6398 251.693 69.9757 250.029 67.9228 250.029Z" stroke="#263238" stroke-width="0.9" stroke-linecap="round" stroke-linejoin="round"/>
<path d="M99.1621 250.029H77.7961C75.7433 250.029 74.0791 251.693 74.0791 253.746V275.112C74.0791 277.165 75.7433 278.829 77.7961 278.829H99.1621C101.215 278.829 102.879 277.165 102.879 275.112V253.746C102.879 251.693 101.215 250.029 99.1621 250.029Z" stroke="#263238" stroke-width="0.9" stroke-linecap="round" stroke-linejoin="round"/>
<path d="M130.401 250.029H109.035C106.982 250.029 105.318 251.693 105.318 253.746V275.112C105.318 277.165 106.982 278.829 109.035 278.829H130.401C132.454 278.829 134.118 277.165 134.118 275.112V253.746C134.118 251.693 132.454 250.029 130.401 250.029Z" stroke="#263238" stroke-width="0.9" stroke-linecap="round" stroke-linejoin="round"/>
<path d="M161.631 250.029H140.265C138.212 250.029 136.548 251.693 136.548 253.746V275.112C136.548 277.165 138.212 278.829 140.265 278.829H161.631C163.684 278.829 165.348 277.165 165.348 275.112V253.746C165.348 251.693 163.684 250.029 161.631 250.029Z" stroke="#263238" stroke-width="0.9" stroke-linecap="round" stroke-linejoin="round"/>
<path d="M192.87 250.029H171.504C169.451 250.029 167.787 251.693 167.787 253.746V275.112C167.787 277.165 169.451 278.829 171.504 278.829H192.87C194.923 278.829 196.587 277.165 196.587 275.112V253.746C196.587 251.693 194.923 250.029 192.87 250.029Z" stroke="#263238" stroke-width="0.9" stroke-linecap="round" stroke-linejoin="round"/>
<path d="M224.109 250.029H202.743C200.69 250.029 199.026 251.693 199.026 253.746V275.112C199.026 277.165 200.69 278.829 202.743 278.829H224.109C226.162 278.829 227.826 277.165 227.826 275.112V253.746C227.826 251.693 226.162 250.029 224.109 250.029Z" stroke="#263238" stroke-width="0.9" stroke-linecap="round" stroke-linejoin="round"/>
<path d="M255.339 250.029H233.973C231.921 250.029 230.256 251.693 230.256 253.746V275.112C230.256 277.165 231.921 278.829 233.973 278.829H255.339C257.392 278.829 259.056 277.165 259.056 275.112V253.746C259.056 251.693 257.392 250.029 255.339 250.029Z" stroke="#263238" stroke-width="0.9" stroke-linecap="round" stroke-linejoin="round"/>
<path d="M286.578 250.029H265.212C263.159 250.029 261.495 251.693 261.495 253.746V275.112C261.495 277.165 263.159 278.829 265.212 278.829H286.578C288.631 278.829 290.295 277.165 290.295 275.112V253.746C290.295 251.693 288.631 250.029 286.578 250.029Z" stroke="#263238" stroke-width="0.9" stroke-linecap="round" stroke-linejoin="round"/>
<path d="M317.817 250.029H296.451C294.399 250.029 292.734 251.693 292.734 253.746V275.112C292.734 277.165 294.399 278.829 296.451 278.829H317.817C319.87 278.829 321.534 277.165 321.534 275.112V253.746C321.534 251.693 319.87 250.029 317.817 250.029Z" stroke="#263238" stroke-width="0.9" stroke-linecap="round" stroke-linejoin="round"/>
<path d="M349.047 250.029H327.681C325.628 250.029 323.964 251.693 323.964 253.746V275.112C323.964 277.165 325.628 278.829 327.681 278.829H349.047C351.1 278.829 352.764 277.165 352.764 275.112V253.746C352.764 251.693 351.1 250.029 349.047 250.029Z" stroke="#263238" stroke-width="0.9" stroke-linecap="round" stroke-linejoin="round"/>
<path d="M380.286 250.029H358.92C356.867 250.029 355.203 251.693 355.203 253.746V275.112C355.203 277.165 356.867 278.829 358.92 278.829H380.286C382.339 278.829 384.003 277.165 384.003 275.112V253.746C384.003 251.693 382.339 250.029 380.286 250.029Z" stroke="#263238" stroke-width="0.9" stroke-linecap="round" stroke-linejoin="round"/>
<path d="M411.525 250.029H390.159C388.107 250.029 386.442 251.693 386.442 253.746V275.112C386.442 277.165 388.107 278.829 390.159 278.829H411.525C413.578 278.829 415.242 277.165 415.242 275.112V253.746C415.242 251.693 413.578 250.029 411.525 250.029Z" stroke="#263238" stroke-width="0.9" stroke-linecap="round" stroke-linejoin="round"/>
<path d="M67.9228 280.809H46.5568C44.504 280.809 42.8398 282.473 42.8398 284.526V305.892C42.8398 307.945 44.504 309.609 46.5568 309.609H67.9228C69.9757 309.609 71.6398 307.945 71.6398 305.892V284.526C71.6398 282.473 69.9757 280.809 67.9228 280.809Z" stroke="#263238" stroke-width="0.9" stroke-linecap="round" stroke-linejoin="round"/>
<path d="M99.1621 280.809H77.7961C75.7433 280.809 74.0791 282.473 74.0791 284.526V305.892C74.0791 307.945 75.7433 309.609 77.7961 309.609H99.1621C101.215 309.609 102.879 307.945 102.879 305.892V284.526C102.879 282.473 101.215 280.809 99.1621 280.809Z" stroke="#263238" stroke-width="0.9" stroke-linecap="round" stroke-linejoin="round"/>
<path d="M130.401 280.809H109.035C106.982 280.809 105.318 282.473 105.318 284.526V305.892C105.318 307.945 106.982 309.609 109.035 309.609H130.401C132.454 309.609 134.118 307.945 134.118 305.892V284.526C134.118 282.473 132.454 280.809 130.401 280.809Z" stroke="#263238" stroke-width="0.9" stroke-linecap="round" stroke-linejoin="round"/>
<path d="M161.631 280.809H140.265C138.212 280.809 136.548 282.473 136.548 284.526V305.892C136.548 307.945 138.212 309.609 140.265 309.609H161.631C163.684 309.609 165.348 307.945 165.348 305.892V284.526C165.348 282.473 163.684 280.809 161.631 280.809Z" stroke="#263238" stroke-width="0.9" stroke-linecap="round" stroke-linejoin="round"/>
<path d="M192.87 280.809H171.504C169.451 280.809 167.787 282.473 167.787 284.526V305.892C167.787 307.945 169.451 309.609 171.504 309.609H192.87C194.923 309.609 196.587 307.945 196.587 305.892V284.526C196.587 282.473 194.923 280.809 192.87 280.809Z" stroke="#263238" stroke-width="0.9" stroke-linecap="round" stroke-linejoin="round"/>
<path d="M224.109 280.809H202.743C200.69 280.809 199.026 282.473 199.026 284.526V305.892C199.026 307.945 200.69 309.609 202.743 309.609H224.109C226.162 309.609 227.826 307.945 227.826 305.892V284.526C227.826 282.473 226.162 280.809 224.109 280.809Z" stroke="#263238" stroke-width="0.9" stroke-linecap="round" stroke-linejoin="round"/>
<path d="M255.339 280.809H233.973C231.921 280.809 230.256 282.473 230.256 284.526V305.892C230.256 307.945 231.921 309.609 233.973 309.609H255.339C257.392 309.609 259.056 307.945 259.056 305.892V284.526C259.056 282.473 257.392 280.809 255.339 280.809Z" stroke="#263238" stroke-width="0.9" stroke-linecap="round" stroke-linejoin="round"/>
<path d="M286.578 280.809H265.212C263.159 280.809 261.495 282.473 261.495 284.526V305.892C261.495 307.945 263.159 309.609 265.212 309.609H286.578C288.631 309.609 290.295 307.945 290.295 305.892V284.526C290.295 282.473 288.631 280.809 286.578 280.809Z" stroke="#263238" stroke-width="0.9" stroke-linecap="round" stroke-linejoin="round"/>
<path d="M317.817 280.809H296.451C294.399 280.809 292.734 282.473 292.734 284.526V305.892C292.734 307.945 294.399 309.609 296.451 309.609H317.817C319.87 309.609 321.534 307.945 321.534 305.892V284.526C321.534 282.473 319.87 280.809 317.817 280.809Z" stroke="#263238" stroke-width="0.9" stroke-linecap="round" stroke-linejoin="round"/>
<path d="M349.047 280.809H327.681C325.628 280.809 323.964 282.473 323.964 284.526V305.892C323.964 307.945 325.628 309.609 327.681 309.609H349.047C351.1 309.609 352.764 307.945 352.764 305.892V284.526C352.764 282.473 351.1 280.809 349.047 280.809Z" stroke="#263238" stroke-width="0.9" stroke-linecap="round" stroke-linejoin="round"/>
<path d="M380.286 280.809H358.92C356.867 280.809 355.203 282.473 355.203 284.526V305.892C355.203 307.945 356.867 309.609 358.92 309.609H380.286C382.339 309.609 384.003 307.945 384.003 305.892V284.526C384.003 282.473 382.339 280.809 380.286 280.809Z" stroke="#263238" stroke-width="0.9" stroke-linecap="round" stroke-linejoin="round"/>
<path d="M411.525 280.809H390.159C388.107 280.809 386.442 282.473 386.442 284.526V305.892C386.442 307.945 388.107 309.609 390.159 309.609H411.525C413.578 309.609 415.242 307.945 415.242 305.892V284.526C415.242 282.473 413.578 280.809 411.525 280.809Z" stroke="#263238" stroke-width="0.9" stroke-linecap="round" stroke-linejoin="round"/>
<path d="M67.9228 311.589H46.5568C44.504 311.589 42.8398 313.253 42.8398 315.306V336.672C42.8398 338.725 44.504 340.389 46.5568 340.389H67.9228C69.9757 340.389 71.6398 338.725 71.6398 336.672V315.306C71.6398 313.253 69.9757 311.589 67.9228 311.589Z" stroke="#263238" stroke-width="0.9" stroke-linecap="round" stroke-linejoin="round"/>
<path d="M99.1621 311.589H77.7961C75.7433 311.589 74.0791 313.253 74.0791 315.306V336.672C74.0791 338.725 75.7433 340.389 77.7961 340.389H99.1621C101.215 340.389 102.879 338.725 102.879 336.672V315.306C102.879 313.253 101.215 311.589 99.1621 311.589Z" stroke="#263238" stroke-width="0.9" stroke-linecap="round" stroke-linejoin="round"/>
<path d="M130.401 311.589H109.035C106.982 311.589 105.318 313.253 105.318 315.306V336.672C105.318 338.725 106.982 340.389 109.035 340.389H130.401C132.454 340.389 134.118 338.725 134.118 336.672V315.306C134.118 313.253 132.454 311.589 130.401 311.589Z" stroke="#263238" stroke-width="0.9" stroke-linecap="round" stroke-linejoin="round"/>
<path d="M161.631 311.589H140.265C138.212 311.589 136.548 313.253 136.548 315.306V336.672C136.548 338.725 138.212 340.389 140.265 340.389H161.631C163.684 340.389 165.348 338.725 165.348 336.672V315.306C165.348 313.253 163.684 311.589 161.631 311.589Z" stroke="#263238" stroke-width="0.9" stroke-linecap="round" stroke-linejoin="round"/>
<path d="M192.87 311.589H171.504C169.451 311.589 167.787 313.253 167.787 315.306V336.672C167.787 338.725 169.451 340.389 171.504 340.389H192.87C194.923 340.389 196.587 338.725 196.587 336.672V315.306C196.587 313.253 194.923 311.589 192.87 311.589Z" stroke="#263238" stroke-width="0.9" stroke-linecap="round" stroke-linejoin="round"/>
<path d="M224.109 311.589H202.743C200.69 311.589 199.026 313.253 199.026 315.306V336.672C199.026 338.725 200.69 340.389 202.743 340.389H224.109C226.162 340.389 227.826 338.725 227.826 336.672V315.306C227.826 313.253 226.162 311.589 224.109 311.589Z" stroke="#263238" stroke-width="0.9" stroke-linecap="round" stroke-linejoin="round"/>
<path d="M255.339 311.589H233.973C231.921 311.589 230.256 313.253 230.256 315.306V336.672C230.256 338.725 231.921 340.389 233.973 340.389H255.339C257.392 340.389 259.056 338.725 259.056 336.672V315.306C259.056 313.253 257.392 311.589 255.339 311.589Z" stroke="#263238" stroke-width="0.9" stroke-linecap="round" stroke-linejoin="round"/>
<path d="M286.578 311.589H265.212C263.159 311.589 261.495 313.253 261.495 315.306V336.672C261.495 338.725 263.159 340.389 265.212 340.389H286.578C288.631 340.389 290.295 338.725 290.295 336.672V315.306C290.295 313.253 288.631 311.589 286.578 311.589Z" stroke="#263238" stroke-width="0.9" stroke-linecap="round" stroke-linejoin="round"/>
<path d="M317.817 311.589H296.451C294.399 311.589 292.734 313.253 292.734 315.306V336.672C292.734 338.725 294.399 340.389 296.451 340.389H317.817C319.87 340.389 321.534 338.725 321.534 336.672V315.306C321.534 313.253 319.87 311.589 317.817 311.589Z" stroke="#263238" stroke-width="0.9" stroke-linecap="round" stroke-linejoin="round"/>
<path d="M349.047 311.589H327.681C325.628 311.589 323.964 313.253 323.964 315.306V336.672C323.964 338.725 325.628 340.389 327.681 340.389H349.047C351.1 340.389 352.764 338.725 352.764 336.672V315.306C352.764 313.253 351.1 311.589 349.047 311.589Z" stroke="#263238" stroke-width="0.9" stroke-linecap="round" stroke-linejoin="round"/>
<path d="M380.286 311.589H358.92C356.867 311.589 355.203 313.253 355.203 315.306V336.672C355.203 338.725 356.867 340.389 358.92 340.389H380.286C382.339 340.389 384.003 338.725 384.003 336.672V315.306C384.003 313.253 382.339 311.589 380.286 311.589Z" stroke="#263238" stroke-width="0.9" stroke-linecap="round" stroke-linejoin="round"/>
<path d="M411.525 311.589H390.159C388.107 311.589 386.442 313.253 386.442 315.306V336.672C386.442 338.725 388.107 340.389 390.159 340.389H411.525C413.578 340.389 415.242 338.725 415.242 336.672V315.306C415.242 313.253 413.578 311.589 411.525 311.589Z" stroke="#263238" stroke-width="0.9" stroke-linecap="round" stroke-linejoin="round"/>
<path d="M107.415 206.028V67.149" stroke="#263238" stroke-width="0.9" stroke-linecap="round" stroke-linejoin="round"/>
<path d="M116.631 167.823H111.69V196.587H116.631V167.823Z" fill="#263238" stroke="#263238" stroke-width="0.9" stroke-linecap="round" stroke-linejoin="round"/>
<path d="M103.149 167.823H98.208V196.587H103.149V167.823Z" fill="#263238" stroke="#263238" stroke-width="0.9" stroke-linecap="round" stroke-linejoin="round"/>
<path d="M41.355 206.028H413.928" stroke="#263238" stroke-width="1.8" stroke-linecap="round" stroke-linejoin="round"/>
<path d="M329.436 206.028V67.149" stroke="#263238" stroke-width="0.9" stroke-linecap="round" stroke-linejoin="round"/>
<path d="M326.286 167.823H321.345V196.587H326.286V167.823Z" fill="#263238" stroke="#263238" stroke-width="0.9" stroke-linecap="round" stroke-linejoin="round"/>
<path d="M338.202 167.823H333.261V196.587H338.202V167.823Z" fill="#263238" stroke="#263238" stroke-width="0.9" stroke-linecap="round" stroke-linejoin="round"/>
<path d="M112.446 323.577H123.507C124.483 323.577 125.42 323.965 126.11 324.655C126.8 325.345 127.188 326.282 127.188 327.258V361.98H108.765V327.258C108.765 326.282 109.153 325.345 109.843 324.655C110.534 323.965 111.47 323.577 112.446 323.577Z" fill="white" stroke="#263238" stroke-width="0.9" stroke-linecap="round" stroke-linejoin="round"/>
<path d="M112.446 323.577H123.507C124.483 323.577 125.42 323.965 126.11 324.655C126.8 325.345 127.188 326.282 127.188 327.258V333.612H108.765V327.258C108.765 326.282 109.153 325.345 109.843 324.655C110.534 323.965 111.47 323.577 112.446 323.577Z" fill="white" stroke="#263238" stroke-width="0.9" stroke-linecap="round" stroke-linejoin="round"/>
<path d="M112.635 335.052V358.227" stroke="#263238" stroke-width="0.9" stroke-linecap="round" stroke-linejoin="round"/>
<path d="M118.476 335.052V358.227" stroke="#263238" stroke-width="0.9" stroke-linecap="round" stroke-linejoin="round"/>
<path d="M408.42 312.543H320.571C319.015 312.543 317.754 313.804 317.754 315.36V359.613C317.754 361.169 319.015 362.43 320.571 362.43H408.42C409.976 362.43 411.237 361.169 411.237 359.613V315.36C411.237 313.804 409.976 312.543 408.42 312.543Z" fill="white" stroke="#263238" stroke-width="0.9" stroke-linecap="round" stroke-linejoin="round"/>
<path d="M407.637 315.684H388.314V326.025H407.637V315.684Z" fill="#696969" stroke="#263238" stroke-width="0.9" stroke-linecap="round" stroke-linejoin="round"/>
<path d="M392.724 335.7C392.724 336.19 392.579 336.668 392.307 337.075C392.035 337.482 391.648 337.799 391.196 337.987C390.744 338.174 390.246 338.223 389.766 338.127C389.286 338.032 388.845 337.796 388.499 337.45C388.153 337.104 387.917 336.663 387.821 336.183C387.726 335.703 387.775 335.205 387.962 334.753C388.15 334.301 388.467 333.914 388.874 333.642C389.281 333.37 389.759 333.225 390.249 333.225C390.905 333.225 391.535 333.486 391.999 333.95C392.463 334.414 392.724 335.044 392.724 335.7Z" fill="white" stroke="#263238" stroke-width="0.9" stroke-linecap="round" stroke-linejoin="round"/>
<path d="M398.115 338.166C399.482 338.166 400.59 337.058 400.59 335.691C400.59 334.324 399.482 333.216 398.115 333.216C396.748 333.216 395.64 334.324 395.64 335.691C395.64 337.058 396.748 338.166 398.115 338.166Z" fill="white" stroke="#263238" stroke-width="0.9" stroke-linecap="round" stroke-linejoin="round"/>
<path d="M405.981 338.166C407.348 338.166 408.456 337.058 408.456 335.691C408.456 334.324 407.348 333.216 405.981 333.216C404.614 333.216 403.506 334.324 403.506 335.691C403.506 337.058 404.614 338.166 405.981 338.166Z" fill="white" stroke="#263238" stroke-width="0.9" stroke-linecap="round" stroke-linejoin="round"/>
<path d="M392.724 345.123C392.726 345.613 392.582 346.092 392.311 346.5C392.04 346.909 391.654 347.227 391.202 347.416C390.75 347.605 390.252 347.655 389.772 347.561C389.291 347.466 388.849 347.231 388.502 346.885C388.155 346.539 387.918 346.099 387.822 345.618C387.726 345.138 387.774 344.64 387.961 344.187C388.149 343.734 388.466 343.347 388.873 343.075C389.28 342.802 389.759 342.657 390.249 342.657C390.904 342.657 391.532 342.917 391.996 343.379C392.46 343.841 392.722 344.468 392.724 345.123Z" fill="white" stroke="#263238" stroke-width="0.9" stroke-linecap="round" stroke-linejoin="round"/>
<path d="M400.581 345.123C400.583 345.613 400.439 346.093 400.167 346.501C399.896 346.91 399.51 347.228 399.057 347.417C398.605 347.605 398.106 347.655 397.625 347.56C397.144 347.465 396.702 347.229 396.356 346.882C396.009 346.535 395.773 346.094 395.678 345.613C395.583 345.132 395.633 344.633 395.821 344.181C396.009 343.728 396.328 343.342 396.736 343.07C397.145 342.799 397.625 342.655 398.115 342.657C398.768 342.659 399.394 342.92 399.856 343.382C400.318 343.844 400.578 344.47 400.581 345.123Z" fill="white" stroke="#263238" stroke-width="0.9" stroke-linecap="round" stroke-linejoin="round"/>
<path d="M408.447 345.123C408.449 345.613 408.305 346.093 408.034 346.501C407.762 346.91 407.376 347.228 406.923 347.417C406.471 347.605 405.972 347.655 405.491 347.56C405.01 347.465 404.569 347.229 404.222 346.882C403.875 346.535 403.639 346.094 403.544 345.613C403.449 345.132 403.499 344.633 403.687 344.181C403.876 343.728 404.194 343.342 404.603 343.07C405.011 342.799 405.491 342.655 405.981 342.657C406.634 342.659 407.26 342.92 407.722 343.382C408.184 343.844 408.445 344.47 408.447 345.123Z" fill="white" stroke="#263238" stroke-width="0.9" stroke-linecap="round" stroke-linejoin="round"/>
<path d="M392.724 354.6C392.724 355.09 392.579 355.568 392.307 355.975C392.035 356.382 391.648 356.699 391.196 356.887C390.744 357.074 390.246 357.123 389.766 357.027C389.286 356.932 388.845 356.696 388.499 356.35C388.153 356.004 387.917 355.563 387.821 355.083C387.726 354.603 387.775 354.105 387.962 353.653C388.15 353.201 388.467 352.814 388.874 352.542C389.281 352.27 389.759 352.125 390.249 352.125C390.905 352.125 391.535 352.386 391.999 352.85C392.463 353.314 392.724 353.944 392.724 354.6Z" fill="white" stroke="#263238" stroke-width="0.9" stroke-linecap="round" stroke-linejoin="round"/>
<path d="M400.581 354.6C400.581 355.09 400.435 355.569 400.163 355.976C399.891 356.383 399.504 356.7 399.051 356.887C398.598 357.075 398.1 357.123 397.62 357.027C397.139 356.931 396.698 356.694 396.353 356.347C396.007 356 395.772 355.558 395.677 355.077C395.583 354.597 395.633 354.099 395.822 353.647C396.011 353.195 396.329 352.809 396.737 352.538C397.146 352.267 397.625 352.123 398.115 352.125C398.77 352.127 399.397 352.389 399.859 352.853C400.321 353.317 400.581 353.945 400.581 354.6Z" fill="white" stroke="#263238" stroke-width="0.9" stroke-linecap="round" stroke-linejoin="round"/>
<path d="M408.447 354.6C408.447 355.09 408.302 355.569 408.029 355.976C407.757 356.383 407.37 356.7 406.917 356.887C406.464 357.075 405.966 357.123 405.486 357.027C405.006 356.931 404.565 356.694 404.219 356.347C403.873 356 403.638 355.558 403.544 355.077C403.449 354.597 403.499 354.099 403.688 353.647C403.877 353.195 404.195 352.809 404.604 352.538C405.012 352.267 405.491 352.123 405.981 352.125C406.636 352.127 407.263 352.389 407.725 352.853C408.188 353.317 408.447 353.945 408.447 354.6Z" fill="white" stroke="#263238" stroke-width="0.9" stroke-linecap="round" stroke-linejoin="round"/>
<path d="M380.7 337.032C380.7 349.074 379.8 358.83 378.675 358.83C377.55 358.83 376.659 349.074 376.659 337.032C376.659 324.99 377.559 315.234 378.675 315.234C379.791 315.234 380.7 324.999 380.7 337.032Z" fill="#696969" stroke="#263238" stroke-width="0.9" stroke-linecap="round" stroke-linejoin="round"/>
<path d="M368.703 317.133C367.398 317.07 366.075 317.034 364.743 317.034C341.523 317.034 322.704 326.295 322.704 337.734C322.704 349.173 341.523 358.434 364.743 358.434C366.075 358.434 367.443 358.434 368.703 358.344V317.133Z" fill="#696969" stroke="#263238" stroke-width="0.9" stroke-linecap="round" stroke-linejoin="round"/>
<path d="M85.4011 317.484H63.8281V324.225H85.4011V317.484Z" fill="#263238" stroke="#263238" stroke-width="0.9" stroke-linecap="round" stroke-linejoin="round"/>
<path d="M56.1152 322.425H93.5552L101.574 353.187H48.0962L56.1152 322.425Z" fill="white" stroke="#263238" stroke-width="0.9" stroke-linecap="round" stroke-linejoin="round"/>
<path d="M101.574 352.953H48.0962V362.421H101.574V352.953Z" fill="#263238" stroke="#263238" stroke-width="0.9" stroke-linecap="round" stroke-linejoin="round"/>
<path d="M93.7351 323.1L93.5551 322.398H56.1151L55.9351 323.1C58.6351 335.25 66.0781 343.971 74.8351 343.971C83.5921 343.971 91.0261 335.277 93.7351 323.1Z" fill="#696969" stroke="#263238" stroke-width="0.9" stroke-linecap="round" stroke-linejoin="round"/>
<path d="M65.628 344.898H62.478V350.739H65.628V344.898Z" fill="white" stroke="#263238" stroke-width="0.9" stroke-linecap="round" stroke-linejoin="round"/>
<path d="M72.8189 344.898H69.6689V350.739H72.8189V344.898Z" fill="white" stroke="#263238" stroke-width="0.9" stroke-linecap="round" stroke-linejoin="round"/>
<path d="M80.0104 344.898H76.8604V350.739H80.0104V344.898Z" fill="white" stroke="#263238" stroke-width="0.9" stroke-linecap="round" stroke-linejoin="round"/>
<path d="M87.2013 344.898H84.0513V350.739H87.2013V344.898Z" fill="white" stroke="#263238" stroke-width="0.9" stroke-linecap="round" stroke-linejoin="round"/>
<path d="M196.2 86.49C196.2 86.49 176.913 93.015 172.296 104.697C167.679 116.379 179.361 123.984 182.619 125.883C185.877 127.782 188.325 137.583 185.607 150.057C182.889 162.531 174.744 167.157 169.038 166.635C163.332 166.113 162.243 165.546 162.243 165.546C162.243 165.546 163.062 180.216 177.462 186.732C191.862 193.248 198.135 190.8 198.135 190.8C198.135 190.8 222.849 198.405 235.35 196.2C247.851 193.995 253.8 190.269 253.8 190.269C253.8 190.269 260.595 193.257 270.378 188.091C280.161 182.925 283.689 175.05 283.689 175.05C283.689 175.05 269.559 174.78 272.817 160.11C276.075 145.44 276.894 117.189 261.117 100.071C245.34 82.953 215.244 73.998 196.2 86.49Z" fill="#263238"/>
<mask id="mask0_153_1945" style="mask-type:luminance" maskUnits="userSpaceOnUse" x="162" y="80" width="122" height="117">
<path d="M196.2 86.49C196.2 86.49 176.913 93.015 172.296 104.697C167.679 116.379 179.361 123.984 182.619 125.883C185.877 127.782 188.325 137.583 185.607 150.057C182.889 162.531 174.744 167.157 169.038 166.635C163.332 166.113 162.243 165.546 162.243 165.546C162.243 165.546 163.062 180.216 177.462 186.732C191.862 193.248 198.135 190.8 198.135 190.8C198.135 190.8 222.849 198.405 235.35 196.2C247.851 193.995 253.8 190.269 253.8 190.269C253.8 190.269 260.595 193.257 270.378 188.091C280.161 182.925 283.689 175.05 283.689 175.05C283.689 175.05 269.559 174.78 272.817 160.11C276.075 145.44 276.894 117.189 261.117 100.071C245.34 82.953 215.244 73.998 196.2 86.49Z" fill="white"/>
</mask>
<g mask="url(#mask0_153_1945)">
<path d="M215.739 93.312C215.739 93.312 223.839 121.32 240.939 130.653C258.039 139.986 269.739 151.353 269.739 161.496C269.739 171.639 270.144 187.074 288.81 180.576" stroke="#6E6E6E" stroke-width="0.9" stroke-linecap="round" stroke-linejoin="round"/>
<path d="M221.013 87.219C221.013 87.219 243.747 94.122 255.105 110.763C266.463 127.404 262.8 135.522 267.3 144.9C271.8 154.278 278.262 154.242 278.262 154.242" stroke="#6E6E6E" stroke-width="0.9" stroke-linecap="round" stroke-linejoin="round"/>
<path d="M218.583 90.063C218.583 90.063 238.059 99.801 245.367 114.417" stroke="#6E6E6E" stroke-width="0.9" stroke-linecap="round" stroke-linejoin="round"/>
<path d="M208.8 99.801C208.8 99.801 207.18 86.814 220.572 85.194" stroke="#6E6E6E" stroke-width="0.9" stroke-linecap="round" stroke-linejoin="round"/>
<path d="M182.052 122.13C182.052 122.13 169.065 116.037 176.364 106.299C183.663 96.561 205.992 97.371 205.992 97.371" stroke="#6E6E6E" stroke-width="0.9" stroke-linecap="round" stroke-linejoin="round"/>
<path d="M203.562 105.894C203.562 105.894 181.647 112.797 181.242 114.417C180.837 116.037 183.672 116.037 183.672 116.037" stroke="#6E6E6E" stroke-width="0.9" stroke-linecap="round" stroke-linejoin="round"/>
<path d="M211.68 89.253C211.68 89.253 208.836 85.599 196.659 88.038" stroke="#6E6E6E" stroke-width="0.9" stroke-linecap="round" stroke-linejoin="round"/>
<path d="M163.8 179.361C163.8 179.361 184.905 183.861 193.428 158.256" stroke="#6E6E6E" stroke-width="0.9" stroke-linecap="round" stroke-linejoin="round"/>
<path d="M179.208 189.9C179.208 189.9 195.039 189.9 199.098 172.854" stroke="#6E6E6E" stroke-width="0.9" stroke-linecap="round" stroke-linejoin="round"/>
<path d="M249.831 162.315C249.831 162.315 246.987 192.348 266.031 195.615" stroke="#6E6E6E" stroke-width="0.9" stroke-linecap="round" stroke-linejoin="round"/>
</g>
<path d="M196.2 86.49C196.2 86.49 176.913 93.015 172.296 104.697C167.679 116.379 179.361 123.984 182.619 125.883C185.877 127.782 188.325 137.583 185.607 150.057C182.889 162.531 174.744 167.157 169.038 166.635C163.332 166.113 162.243 165.546 162.243 165.546C162.243 165.546 163.062 180.216 177.462 186.732C191.862 193.248 198.135 190.8 198.135 190.8C198.135 190.8 222.849 198.405 235.35 196.2C247.851 193.995 253.8 190.269 253.8 190.269C253.8 190.269 260.595 193.257 270.378 188.091C280.161 182.925 283.689 175.05 283.689 175.05C283.689 175.05 269.559 174.78 272.817 160.11C276.075 145.44 276.894 117.189 261.117 100.071C245.34 82.953 215.244 73.998 196.2 86.49Z" stroke="#263238" stroke-width="0.9" stroke-linecap="round" stroke-linejoin="round"/>
<path d="M181.845 208.188C181.845 208.188 168.039 207.036 161.145 214.803C154.251 222.57 121.158 275.211 113.679 285.903C106.2 296.595 106.2 315.531 119.979 318.123C133.758 320.715 146.979 305.181 152.775 297.981C155.694 294.223 158.866 290.668 162.27 287.343C162.27 287.343 159.678 276.408 167.445 258.858C175.212 241.308 180.684 227.502 183.267 220.023C185.85 212.544 181.845 208.188 181.845 208.188Z" fill="white"/>
<mask id="mask1_153_1945" style="mask-type:luminance" maskUnits="userSpaceOnUse" x="108" y="208" width="77" height="111">
<path d="M181.845 208.188C181.845 208.188 168.039 207.036 161.145 214.803C154.251 222.57 121.158 275.211 113.679 285.903C106.2 296.595 106.2 315.531 119.979 318.123C133.758 320.715 146.979 305.181 152.775 297.981C155.694 294.223 158.866 290.668 162.27 287.343C162.27 287.343 159.678 276.408 167.445 258.858C175.212 241.308 180.684 227.502 183.267 220.023C185.85 212.544 181.845 208.188 181.845 208.188Z" fill="white"/>
</mask>
<g mask="url(#mask1_153_1945)">
<path opacity="0.1" d="M171 250.695L175.113 222.795C175.113 222.795 144.288 281.547 135.567 293.76C130.311 301.113 121.698 310.779 118.962 317.817C119.295 317.907 119.637 317.997 119.988 318.06C133.803 320.652 146.988 305.118 152.784 297.918C155.703 294.16 158.876 290.605 162.279 287.28C162.279 287.28 159.687 276.345 167.454 258.795C168.702 255.999 169.884 253.299 171 250.695Z" fill="black"/>
</g>
<path d="M181.845 208.188C181.845 208.188 168.039 207.036 161.145 214.803C154.251 222.57 121.158 275.211 113.679 285.903C106.2 296.595 106.2 315.531 119.979 318.123C133.758 320.715 146.979 305.181 152.775 297.981C155.694 294.223 158.866 290.668 162.27 287.343C162.27 287.343 159.678 276.408 167.445 258.858C175.212 241.308 180.684 227.502 183.267 220.023C185.85 212.544 181.845 208.188 181.845 208.188Z" stroke="#263238" stroke-width="0.9" stroke-linecap="round" stroke-linejoin="round"/>
<path d="M201.411 177.12C201.411 177.12 203.139 186.039 200.835 194.67C198.531 203.301 199.395 203.301 193.635 205.596C189.851 207.035 185.875 207.908 181.836 208.188C181.836 208.188 171.198 236.088 163.143 249.327C155.088 262.566 152.784 277.227 155.943 284.706C157.99 289.396 160.719 293.758 164.043 297.648C164.043 297.648 168.642 314.046 166.05 324.648C163.458 335.25 157.14 350.541 154.548 373.554C151.956 396.567 153.396 422.739 153.396 422.739H304.398C304.398 422.739 304.11 393.687 300.942 369.81C297.774 345.933 294.039 343.971 288.9 329.58C283.761 315.189 283.14 314.622 283.14 304.56C283.14 294.498 286.02 267.444 285.156 249.327C284.292 231.21 279.981 217.107 272.502 211.923C265.023 206.739 247.185 204.723 240.57 200.133C233.955 195.543 237.978 166.185 237.978 166.185C237.978 166.185 226.764 173.385 217.557 175.968C212.326 177.536 206.813 177.93 201.411 177.12Z" fill="white"/>
<mask id="mask2_153_1945" style="mask-type:luminance" maskUnits="userSpaceOnUse" x="152" y="166" width="153" height="257">
<path d="M201.411 177.12C201.411 177.12 203.139 186.039 200.835 194.67C198.531 203.301 199.395 203.301 193.635 205.596C189.851 207.035 185.875 207.908 181.836 208.188C181.836 208.188 171.198 236.088 163.143 249.327C155.088 262.566 152.784 277.227 155.943 284.706C157.99 289.396 160.719 293.758 164.043 297.648C164.043 297.648 168.642 314.046 166.05 324.648C163.458 335.25 157.14 350.541 154.548 373.554C151.956 396.567 153.396 422.739 153.396 422.739H304.398C304.398 422.739 304.11 393.687 300.942 369.81C297.774 345.933 294.039 343.971 288.9 329.58C283.761 315.189 283.14 314.622 283.14 304.56C283.14 294.498 286.02 267.444 285.156 249.327C284.292 231.21 279.981 217.107 272.502 211.923C265.023 206.739 247.185 204.723 240.57 200.133C233.955 195.543 237.978 166.185 237.978 166.185C237.978 166.185 226.764 173.385 217.557 175.968C212.326 177.536 206.813 177.93 201.411 177.12Z" fill="white"/>
</mask>
<g mask="url(#mask2_153_1945)">
<path opacity="0.1" d="M228.6 202.5C238.338 208.062 252.144 210.654 265.896 208.8C257.346 205.695 245.592 203.688 240.498 200.142C233.883 195.543 237.906 166.194 237.906 166.194C232.904 169.338 227.651 172.066 222.201 174.348L222.777 182.691C222.777 182.691 216.423 195.48 228.6 202.5Z" fill="black"/>
<path opacity="0.1" d="M268.767 258.876C268.767 258.876 265.86 280.395 271.089 284.472C276.318 288.549 279.234 286.794 279.234 273.42C279.234 260.046 269.928 255.969 268.767 258.876Z" fill="black"/>
</g>
<path d="M201.411 177.12C201.411 177.12 203.139 186.039 200.835 194.67C198.531 203.301 199.395 203.301 193.635 205.596C189.851 207.035 185.875 207.908 181.836 208.188C181.836 208.188 171.198 236.088 163.143 249.327C155.088 262.566 152.784 277.227 155.943 284.706C157.99 289.396 160.719 293.758 164.043 297.648C164.043 297.648 168.642 314.046 166.05 324.648C163.458 335.25 157.14 350.541 154.548 373.554C151.956 396.567 153.396 422.739 153.396 422.739H304.398C304.398 422.739 304.11 393.687 300.942 369.81C297.774 345.933 294.039 343.971 288.9 329.58C283.761 315.189 283.14 314.622 283.14 304.56C283.14 294.498 286.02 267.444 285.156 249.327C284.292 231.21 279.981 217.107 272.502 211.923C265.023 206.739 247.185 204.723 240.57 200.133C233.955 195.543 237.978 166.185 237.978 166.185C237.978 166.185 226.764 173.385 217.557 175.968C212.326 177.536 206.813 177.93 201.411 177.12Z" stroke="#263238" stroke-width="0.9" stroke-linecap="round" stroke-linejoin="round"/>
<path d="M201.852 188.784C207.23 191.166 213.32 191.382 218.853 189.387C222.66 188.046 231.849 181.476 236.898 177.741C237.231 171.387 237.942 166.185 237.942 166.185C237.942 166.185 226.728 173.385 217.521 175.968C212.301 177.531 206.801 177.924 201.411 177.12C202.046 180.974 202.195 184.893 201.852 188.784Z" fill="#263238" stroke="#263238" stroke-width="0.9" stroke-linecap="round" stroke-linejoin="round"/>
<path d="M300.942 369.9C299.664 360.27 298.296 354.204 296.775 349.443C236.475 370.926 181.071 361.143 157.635 355.086C156.26 361.211 155.221 367.406 154.521 373.644C151.929 396.657 153.369 422.829 153.369 422.829H304.398C304.398 422.829 304.11 393.732 300.942 369.9Z" fill="#263238" stroke="#263238" stroke-width="0.9" stroke-linecap="round" stroke-linejoin="round"/>
<path d="M229.959 419.796C229.959 419.796 242.946 390.456 265.959 378.72" stroke="#6E6E6E" stroke-width="0.9" stroke-linecap="round" stroke-linejoin="round"/>
<path d="M225.351 415.602C227.697 406.5 232.311 398.14 238.761 391.302" stroke="#6E6E6E" stroke-width="0.9" stroke-linecap="round" stroke-linejoin="round"/>
<path d="M170.865 377.469C170.865 377.469 178.407 392.967 192.654 401.769" stroke="#6E6E6E" stroke-width="0.9" stroke-linecap="round" stroke-linejoin="round"/>
<path d="M283.104 304.56C283.104 299.709 283.77 290.934 284.364 281.16C278.856 281.367 270.918 280.692 264.987 276.111C254.916 268.344 249.741 253.386 251.172 237.276C252.162 226.251 256.113 213.471 258.507 206.505C256.284 205.875 253.602 205.2 251.451 204.579C250.2 209.187 248.472 216.666 245.421 225.486C240.246 240.444 231.021 260.001 212.337 260.289C193.653 260.577 178.974 254.79 182.7 238.392C185.4 226.503 188.883 213.111 190.584 206.64C187.73 207.46 184.798 207.979 181.836 208.188C181.836 208.188 171.198 236.088 163.143 249.327C155.088 262.566 152.784 277.227 155.943 284.706C157.989 289.396 160.719 293.758 164.043 297.648C164.043 297.648 168.642 314.046 166.05 324.648C163.845 333.738 158.913 346.248 155.907 363.969C163.71 368.253 181.665 375.669 214.407 377.289C251.577 379.089 287.307 368.703 300.213 364.41C297.216 345.51 293.67 342.747 288.918 329.535C283.68 315.198 283.104 314.622 283.104 304.56Z" fill="#0C9A61"/>
<mask id="mask3_153_1945" style="mask-type:luminance" maskUnits="userSpaceOnUse" x="154" y="204" width="147" height="174">
<path d="M283.104 304.56C283.104 299.709 283.77 290.934 284.364 281.16C278.856 281.367 270.918 280.692 264.987 276.111C254.916 268.344 249.741 253.386 251.172 237.276C252.162 226.251 256.113 213.471 258.507 206.505C256.284 205.875 253.602 205.2 251.451 204.579C250.2 209.187 248.472 216.666 245.421 225.486C240.246 240.444 231.021 260.001 212.337 260.289C193.653 260.577 178.974 254.79 182.7 238.392C185.4 226.503 188.883 213.111 190.584 206.64C187.73 207.46 184.798 207.979 181.836 208.188C181.836 208.188 171.198 236.088 163.143 249.327C155.088 262.566 152.784 277.227 155.943 284.706C157.989 289.396 160.719 293.758 164.043 297.648C164.043 297.648 168.642 314.046 166.05 324.648C163.845 333.738 158.913 346.248 155.907 363.969C163.71 368.253 181.665 375.669 214.407 377.289C251.577 379.089 287.307 368.703 300.213 364.41C297.216 345.51 293.67 342.747 288.918 329.535C283.68 315.198 283.104 314.622 283.104 304.56Z" fill="white"/>
</mask>
<g mask="url(#mask3_153_1945)">
<path opacity="0.1" d="M247.959 376.047C265.697 373.906 283.182 370.023 300.159 364.455C297.162 345.555 293.616 342.792 288.864 329.58C283.68 315.18 283.104 314.622 283.104 304.56C283.104 299.709 283.77 290.934 284.364 281.16C278.856 281.367 270.918 280.692 264.987 276.111C257.031 269.982 252.153 259.353 251.145 247.23C244.998 259.299 232.74 280.413 219.303 287.136C200.097 296.739 188.1 291.339 171.9 284.733C160.2 279.963 156.6 280.836 156.015 284.868C158.041 289.508 160.737 293.826 164.016 297.684C164.016 297.684 164.916 301.059 165.744 305.721C169.821 309.015 175.482 312.381 183.303 315.936C203.103 324.936 236.097 330.336 253.503 340.533C270.909 350.73 257.103 360.936 248.697 373.536C248.224 374.289 247.969 375.158 247.959 376.047Z" fill="black"/>
</g>
<path d="M283.104 304.56C283.104 299.709 283.77 290.934 284.364 281.16C278.856 281.367 270.918 280.692 264.987 276.111C254.916 268.344 249.741 253.386 251.172 237.276C252.162 226.251 256.113 213.471 258.507 206.505C256.284 205.875 253.602 205.2 251.451 204.579C250.2 209.187 248.472 216.666 245.421 225.486C240.246 240.444 231.021 260.001 212.337 260.289C193.653 260.577 178.974 254.79 182.7 238.392C185.4 226.503 188.883 213.111 190.584 206.64C187.73 207.46 184.798 207.979 181.836 208.188C181.836 208.188 171.198 236.088 163.143 249.327C155.088 262.566 152.784 277.227 155.943 284.706C157.989 289.396 160.719 293.758 164.043 297.648C164.043 297.648 168.642 314.046 166.05 324.648C163.845 333.738 158.913 346.248 155.907 363.969C163.71 368.253 181.665 375.669 214.407 377.289C251.577 379.089 287.307 368.703 300.213 364.41C297.216 345.51 293.67 342.747 288.918 329.535C283.68 315.198 283.104 314.622 283.104 304.56Z" stroke="#263238" stroke-width="0.9" stroke-linecap="round" stroke-linejoin="round"/>
<path d="M169.812 300.051C169.812 300.051 175.923 302.967 186.012 302.967" stroke="#263238" stroke-width="0.9" stroke-linecap="round" stroke-linejoin="round"/>
<path d="M126.702 198.117C126.702 198.117 126.189 193.959 125.802 187.371C125.415 180.783 124.902 175.59 128.061 174.897C131.22 174.204 132.39 177.318 132.39 180.963C132.39 184.608 134.127 192.573 135.99 197.946C137.853 203.319 139.806 206.271 136.89 207.657C133.974 209.043 127.575 203.319 126.702 198.117Z" fill="white" stroke="#263238" stroke-width="0.9" stroke-linecap="round" stroke-linejoin="round"/>
<path d="M188.101 189.279C188.101 189.279 182.521 192.6 181.801 197.253C181.081 201.906 183.709 205.227 190.99 204.363C198.271 203.499 197.92 198.963 197.92 198.963L188.101 189.279Z" fill="#0C9A61" stroke="#263238" stroke-width="0.9" stroke-linecap="round" stroke-linejoin="round"/>
<path d="M191.628 194.4C191.628 194.4 187.065 196.569 185.76 198.963C184.455 201.357 182.502 203.31 187.065 201.789C191.628 200.268 193.374 194.211 191.628 194.4Z" fill="white" stroke="#263238" stroke-width="0.9" stroke-linecap="round" stroke-linejoin="round"/>
<path d="M183.168 198C177.822 199.296 174.915 197.676 171.999 198.324C171.364 198.471 170.721 198.579 170.073 198.648C165.933 197.217 162.531 194.805 158.877 192.186C157.473 191.178 156.015 190.134 154.467 189.117C145.242 183.024 130.167 179.091 129.555 178.929C129.302 178.867 129.034 178.907 128.811 179.04C128.587 179.174 128.425 179.39 128.36 179.643C128.294 179.895 128.331 180.163 128.463 180.388C128.594 180.614 128.808 180.778 129.06 180.846C129.213 180.846 144.432 184.851 153.36 190.746C154.872 191.745 156.321 192.78 157.707 193.779C164.763 198.828 174.762 204.345 183.69 201.474C183.892 201.441 184.078 201.347 184.223 201.203C184.368 201.06 184.465 200.874 184.5 200.673C185.877 198.9 183.168 198 183.168 198Z" fill="white" stroke="#263238" stroke-width="0.9" stroke-linecap="round" stroke-linejoin="round"/>
<path d="M184.14 199.17C181.442 200.126 178.538 200.349 175.725 199.818" stroke="#263238" stroke-width="0.9" stroke-linecap="round" stroke-linejoin="round"/>
<path d="M123.453 198.405C123.453 198.405 119.709 202.149 120.573 203.868" stroke="#263238" stroke-width="0.9" stroke-linecap="round" stroke-linejoin="round"/>
<path d="M148.5 215.379L145.044 211.356C145.044 211.356 147.528 200.664 148.788 197.541C149.386 196.201 149.842 194.801 150.147 193.365C151.047 191.565 151.515 188.415 150.3 187.2C149.229 186.129 147.897 187.434 147.6 187.767H147.555C147.656 187.44 147.679 187.094 147.62 186.757C147.561 186.42 147.424 186.102 147.218 185.829C147.012 185.556 146.745 185.335 146.437 185.185C146.13 185.036 145.791 184.961 145.449 184.968C142.677 184.788 140.229 187.011 140.229 187.011C140.229 187.011 139.734 184.968 138.177 184.968C136.62 184.968 133.497 187.74 132.282 189.297C132.192 189.414 132.111 189.531 132.021 189.666C129.105 192.429 123.48 198.423 123.48 198.423C123.48 198.423 124.92 192.384 127.503 189.792C130.086 187.2 136.998 182.313 135.846 180.018C134.694 177.723 131.247 180.018 131.247 180.018C131.247 180.018 115.713 188.352 115.425 191.808C115.137 195.264 111.105 209.934 112.545 211.374C113.985 212.814 133.245 224.604 133.245 224.604C133.245 224.604 119.142 252.792 113.967 265.167C108.792 277.542 103.608 290.187 103.032 301.41C102.456 312.633 109.332 320.976 121.158 320.976C132.984 320.976 138.132 312.921 139.86 297.387C141.588 281.853 149.922 235.242 150.498 227.187C151.074 219.132 151.929 219.411 148.5 215.379Z" fill="white"/>
<mask id="mask4_153_1945" style="mask-type:luminance" maskUnits="userSpaceOnUse" x="102" y="178" width="50" height="143">
<path d="M148.5 215.379L145.044 211.356C145.044 211.356 147.528 200.664 148.788 197.541C149.386 196.201 149.842 194.801 150.147 193.365C151.047 191.565 151.515 188.415 150.3 187.2C149.229 186.129 147.897 187.434 147.6 187.767H147.555C147.656 187.44 147.679 187.094 147.62 186.757C147.561 186.42 147.424 186.102 147.218 185.829C147.012 185.556 146.745 185.335 146.437 185.185C146.13 185.036 145.791 184.961 145.449 184.968C142.677 184.788 140.229 187.011 140.229 187.011C140.229 187.011 139.734 184.968 138.177 184.968C136.62 184.968 133.497 187.74 132.282 189.297C132.192 189.414 132.111 189.531 132.021 189.666C129.105 192.429 123.48 198.423 123.48 198.423C123.48 198.423 124.92 192.384 127.503 189.792C130.086 187.2 136.998 182.313 135.846 180.018C134.694 177.723 131.247 180.018 131.247 180.018C131.247 180.018 115.713 188.352 115.425 191.808C115.137 195.264 111.105 209.934 112.545 211.374C113.985 212.814 133.245 224.604 133.245 224.604C133.245 224.604 119.142 252.792 113.967 265.167C108.792 277.542 103.608 290.187 103.032 301.41C102.456 312.633 109.332 320.976 121.158 320.976C132.984 320.976 138.132 312.921 139.86 297.387C141.588 281.853 149.922 235.242 150.498 227.187C151.074 219.132 151.929 219.411 148.5 215.379Z" fill="white"/>
</mask>
<g mask="url(#mask4_153_1945)">
<path opacity="0.1" d="M139.851 297.369C141.579 281.835 149.913 235.224 150.489 227.169C151.065 219.114 151.929 219.402 148.482 215.37L145.026 211.347C145.026 211.347 147.51 200.655 148.77 197.532C149.368 196.192 149.824 194.792 150.129 193.356C150.815 191.92 151.095 190.323 150.939 188.739L150.696 189.072C150.696 189.072 140.796 210.591 141.39 214.668C141.849 217.899 120.609 212.679 112.482 211.284V211.347C113.922 212.778 133.182 224.577 133.182 224.577C133.182 224.577 143.082 226.881 141.336 236.187C139.59 245.493 128.214 303.984 119.943 318.087C119.386 319.027 118.748 319.915 118.035 320.742C119.049 320.883 120.071 320.958 121.095 320.967C132.948 320.958 138.123 312.903 139.851 297.369Z" fill="black"/>
</g>
<path d="M148.5 215.379L145.044 211.356C145.044 211.356 147.528 200.664 148.788 197.541C149.386 196.201 149.842 194.801 150.147 193.365C151.047 191.565 151.515 188.415 150.3 187.2C149.229 186.129 147.897 187.434 147.6 187.767H147.555C147.656 187.44 147.679 187.094 147.62 186.757C147.561 186.42 147.424 186.102 147.218 185.829C147.012 185.556 146.745 185.335 146.437 185.185C146.13 185.036 145.791 184.961 145.449 184.968C142.677 184.788 140.229 187.011 140.229 187.011C140.229 187.011 139.734 184.968 138.177 184.968C136.62 184.968 133.497 187.74 132.282 189.297C132.192 189.414 132.111 189.531 132.021 189.666C129.105 192.429 123.48 198.423 123.48 198.423C123.48 198.423 124.92 192.384 127.503 189.792C130.086 187.2 136.998 182.313 135.846 180.018C134.694 177.723 131.247 180.018 131.247 180.018C131.247 180.018 115.713 188.352 115.425 191.808C115.137 195.264 111.105 209.934 112.545 211.374C113.985 212.814 133.245 224.604 133.245 224.604C133.245 224.604 119.142 252.792 113.967 265.167C108.792 277.542 103.608 290.187 103.032 301.41C102.456 312.633 109.332 320.976 121.158 320.976C132.984 320.976 138.132 312.921 139.86 297.387C141.588 281.853 149.922 235.242 150.498 227.187C151.074 219.132 151.929 219.411 148.5 215.379Z" stroke="#263238" stroke-width="0.9" stroke-linecap="round" stroke-linejoin="round"/>
<path d="M140.202 186.993C140.202 186.993 133.641 196.389 132.255 198.99C131.343 201.011 130.812 203.184 130.689 205.398" stroke="#263238" stroke-width="0.9" stroke-linecap="round" stroke-linejoin="round"/>
<path d="M138.664 207.999C138.914 205.357 139.617 202.779 140.743 200.376C142.48 196.56 147.574 187.776 147.574 187.776" stroke="#263238" stroke-width="0.9" stroke-linecap="round" stroke-linejoin="round"/>
<path d="M267.813 252.747C267.813 252.747 280.161 304.119 282.627 313.992C285.093 323.865 293.661 339.669 306.261 336.951C318.861 334.233 320.04 318.582 319.761 303.768C319.482 288.954 310.806 255.897 304.632 240.588C298.458 225.279 290.232 213.975 278.892 210.762C267.552 207.549 261.108 208.539 261.108 208.539" fill="white"/>
<mask id="mask5_153_1945" style="mask-type:luminance" maskUnits="userSpaceOnUse" x="261" y="208" width="59" height="130">
<path d="M267.813 252.747C267.813 252.747 280.161 304.119 282.627 313.992C285.093 323.865 293.661 339.669 306.261 336.951C318.861 334.233 320.04 318.582 319.761 303.768C319.482 288.954 310.806 255.897 304.632 240.588C298.458 225.279 290.232 213.975 278.892 210.762C267.552 207.549 261.108 208.539 261.108 208.539" fill="white"/>
</mask>
<g mask="url(#mask5_153_1945)">
<path opacity="0.1" d="M319.797 303.768C319.554 288.954 310.842 255.897 304.668 240.588C298.494 225.279 290.268 213.975 278.928 210.762C275.865 209.886 272.743 209.23 269.586 208.8C274.374 210.834 290.286 219.6 299.592 248.994C310.644 283.887 317.592 310.059 305.991 322.272C299.907 328.662 294.291 328.995 288.441 327.204C292.653 333.585 298.737 338.571 306.261 336.951C318.852 334.233 320.04 318.6 319.797 303.768Z" fill="black"/>
</g>
<path d="M267.813 252.747C267.813 252.747 280.161 304.119 282.627 313.992C285.093 323.865 293.661 339.669 306.261 336.951C318.861 334.233 320.04 318.582 319.761 303.768C319.482 288.954 310.806 255.897 304.632 240.588C298.458 225.279 290.232 213.975 278.892 210.762C267.552 207.549 261.108 208.539 261.108 208.539" stroke="#263238" stroke-width="0.9" stroke-linecap="round" stroke-linejoin="round"/>
<path d="M262.314 246.186L179.37 247.5L190.26 276.165H190.377C192.798 283.365 205.479 288.9 220.77 288.9C235.494 288.9 247.77 283.788 250.848 276.957H251.046L262.314 246.186Z" fill="white" stroke="#263238" stroke-width="0.9" stroke-linecap="round" stroke-linejoin="round"/>
<path d="M220.77 258.912C243.719 258.912 262.323 253.214 262.323 246.186C262.323 239.158 243.719 233.46 220.77 233.46C197.821 233.46 179.217 239.158 179.217 246.186C179.217 253.214 197.821 258.912 220.77 258.912Z" fill="white" stroke="#263238" stroke-width="0.9" stroke-linecap="round" stroke-linejoin="round"/>
<path d="M220.77 256.698C242.253 256.698 259.668 251.665 259.668 245.457C259.668 239.249 242.253 234.216 220.77 234.216C199.287 234.216 181.872 239.249 181.872 245.457C181.872 251.665 199.287 256.698 220.77 256.698Z" fill="white" stroke="#263238" stroke-width="0.9" stroke-linecap="round" stroke-linejoin="round"/>
<mask id="mask6_153_1945" style="mask-type:luminance" maskUnits="userSpaceOnUse" x="179" y="223" width="86" height="34">
<path d="M264.151 223.641H179.875V246.915H182.872C185.473 252.315 201.448 256.437 220.789 256.437C239.068 256.437 254.341 252.738 258.157 247.788L259.057 246.753L262.891 244.836L264.151 223.641Z" fill="white"/>
</mask>
<g mask="url(#mask6_153_1945)">
<path d="M182.502 245.376C182.502 245.376 180.702 238.842 182.007 238.626C183.312 238.41 185.427 241.515 187.524 239.418C189.621 237.321 191.205 234.423 194.094 234.684C196.983 234.945 196.722 238.104 198.594 238.104C200.466 238.104 202.797 234.684 203.85 238.365C204.903 242.046 202.05 247.563 200.169 249.66C198.288 251.757 194.13 251.235 188.352 251.235C182.574 251.235 182.502 245.376 182.502 245.376Z" fill="#0C9A61" stroke="#263238" stroke-width="0.9" stroke-linecap="round" stroke-linejoin="round"/>
<path d="M188.317 251.235L186.499 243.657" stroke="#263238" stroke-width="0.9" stroke-linecap="round" stroke-linejoin="round"/>
<path d="M191.062 251.055L191.503 238.653" stroke="#263238" stroke-width="0.9" stroke-linecap="round" stroke-linejoin="round"/>
<path d="M213.687 238.869C213.687 238.869 211.293 235.386 213.255 232.992C215.217 230.598 216.081 232.56 219.78 232.992C223.479 233.424 223.047 229.95 227.394 231.255C231.741 232.56 233.1 235.8 234.36 235.8C235.62 235.8 238.491 234.054 241.101 236.7C243.711 239.346 243.054 240.84 244.359 240.84C245.664 240.84 247.626 239.094 248.058 242.145C248.49 245.196 247.158 247.149 245.016 247.149C242.874 247.149 238.923 243.45 234.792 243.882C230.661 244.314 229.131 246.06 226.089 245.403C223.047 244.746 222.822 243.234 221.517 242.793C220.212 242.352 216.117 243.009 214.317 241.893C212.517 240.777 214.533 238.842 214.533 238.842L213.687 238.869Z" fill="#0C9A61" stroke="#263238" stroke-width="0.9" stroke-linecap="round" stroke-linejoin="round"/>
<path d="M224.82 239.328C224.82 239.328 222.426 235.845 224.388 233.451C226.35 231.057 227.214 233.019 230.913 233.451C234.612 233.883 234.18 230.409 238.527 231.714C242.874 233.019 244.188 236.286 245.493 236.286C246.798 236.286 249.624 234.54 252.234 237.186C254.844 239.832 254.196 241.326 255.501 241.326C256.806 241.326 258.759 239.58 259.2 242.631C259.641 245.682 258.3 247.635 256.149 247.635C253.998 247.635 250.056 243.936 245.925 244.368C241.794 244.8 240.273 246.546 237.222 245.889C234.171 245.232 233.964 243.72 232.659 243.279C231.354 242.838 227.259 243.495 225.459 242.379C223.659 241.263 225.675 239.328 225.675 239.328H224.82Z" fill="#0C9A61" stroke="#263238" stroke-width="0.9" stroke-linecap="round" stroke-linejoin="round"/>
<path d="M246.978 237.78L245.016 247.14L248.742 247.761L252.198 239.742" fill="#0C9A61"/>
<path d="M246.978 237.78L245.016 247.14L248.742 247.761L252.198 239.742" stroke="#263238" stroke-width="0.9" stroke-linecap="round" stroke-linejoin="round"/>
<path d="M236.097 234.738L236.529 239.742" stroke="#263238" stroke-width="0.9" stroke-linecap="round" stroke-linejoin="round"/>
<path d="M223.479 245.61C223.479 245.61 221.085 242.136 223.047 239.742C225.009 237.348 225.873 239.301 229.572 239.742C233.271 240.183 232.83 236.691 237.186 237.996C241.542 239.301 242.838 242.568 244.143 242.568C245.448 242.568 248.283 240.831 250.893 243.468C253.503 246.105 252.846 247.599 254.151 247.599C255.456 247.599 257.418 245.862 257.85 248.904C258.282 251.946 256.95 253.908 254.808 253.908C252.666 253.908 248.715 250.209 244.584 250.641C240.453 251.073 238.923 252.819 235.881 252.171C232.839 251.523 232.614 249.993 231.309 249.561C230.004 249.129 225.909 249.777 224.109 248.661C222.309 247.545 224.334 245.61 224.334 245.61H223.479Z" fill="#0C9A61" stroke="#263238" stroke-width="0.9" stroke-linecap="round" stroke-linejoin="round"/>
<path d="M224.991 248.202C229.271 248.202 232.74 245.998 232.74 243.279C232.74 240.56 229.271 238.356 224.991 238.356C220.712 238.356 217.242 240.56 217.242 243.279C217.242 245.998 220.712 248.202 224.991 248.202Z" fill="#808080" stroke="#263238" stroke-width="0.9" stroke-linecap="round" stroke-linejoin="round"/>
<path d="M224.82 242.406C224.82 242.406 222.678 239.832 223.308 239.229C223.938 238.626 226.908 238.455 227.268 239.337C227.628 240.219 224.82 242.406 224.82 242.406Z" fill="white"/>
<path d="M223.894 242.757C223.894 242.757 219.394 242.316 218.98 241.641C218.566 240.966 220.141 239.346 221.464 239.679C222.787 240.012 223.894 242.757 223.894 242.757Z" fill="white"/>
<path d="M223.713 243.414C223.713 243.414 220.284 245.34 219.213 245.088C218.142 244.836 217.188 243.054 218.448 242.622C219.708 242.19 223.713 243.414 223.713 243.414Z" fill="white"/>
<path d="M224.388 243.9C224.388 243.9 224.505 246.807 223.488 247.167C222.471 247.527 219.726 246.843 220.014 245.952C220.302 245.061 224.388 243.9 224.388 243.9Z" fill="white"/>
<path d="M225.451 243.9C225.451 243.9 229.051 245.7 228.826 246.429C228.601 247.158 226.018 248.049 225.127 247.329C224.236 246.609 225.451 243.9 225.451 243.9Z" fill="white"/>
<path d="M226.125 243.405C226.125 243.405 230.625 242.829 231.336 243.405C232.047 243.981 231.48 245.808 230.058 245.79C228.636 245.772 226.125 243.405 226.125 243.405Z" fill="white"/>
<path d="M225.9 242.748C225.9 242.748 228.087 240.192 229.221 240.192C230.355 240.192 232.218 241.668 231.273 242.352C230.328 243.036 225.9 242.748 225.9 242.748Z" fill="white"/>
<path d="M247.617 252.558C251.897 252.558 255.366 250.354 255.366 247.635C255.366 244.916 251.897 242.712 247.617 242.712C243.338 242.712 239.868 244.916 239.868 247.635C239.868 250.354 243.338 252.558 247.617 252.558Z" fill="#808080" stroke="#263238" stroke-width="0.9" stroke-linecap="round" stroke-linejoin="round"/>
<path d="M247.447 246.753C247.447 246.753 245.305 244.188 245.935 243.585C246.565 242.982 249.535 242.811 249.895 243.684C250.255 244.557 247.447 246.753 247.447 246.753Z" fill="white"/>
<path d="M246.519 247.104C246.519 247.104 242.019 246.672 241.605 245.988C241.191 245.304 242.766 243.693 244.089 244.026C245.412 244.359 246.519 247.104 246.519 247.104Z" fill="white"/>
<path d="M246.339 247.761C246.339 247.761 242.901 249.687 241.839 249.444C240.777 249.201 239.814 247.401 241.074 246.969C242.334 246.537 246.339 247.761 246.339 247.761Z" fill="white"/>
<path d="M247.014 248.274C247.014 248.274 247.131 251.181 246.114 251.541C245.097 251.901 242.352 251.217 242.64 250.326C242.928 249.435 247.014 248.274 247.014 248.274Z" fill="white"/>
<path d="M248.076 248.274C248.076 248.274 251.676 250.074 251.451 250.794C251.226 251.514 248.643 252.414 247.752 251.694C246.861 250.974 248.076 248.274 248.076 248.274Z" fill="white"/>
<path d="M248.751 247.761C248.751 247.761 253.251 247.185 253.962 247.761C254.673 248.337 254.106 250.173 252.684 250.146C251.262 250.119 248.751 247.761 248.751 247.761Z" fill="white"/>
<path d="M248.562 247.104C248.562 247.104 250.75 244.548 251.884 244.548C253.018 244.548 254.881 246.024 253.936 246.699C252.991 247.374 248.562 247.104 248.562 247.104Z" fill="white"/>
<path d="M218.7 244.071C218.7 244.071 220.59 237.537 219.213 237.321C217.836 237.105 215.613 240.21 213.471 238.113C211.329 236.016 209.7 233.1 206.64 233.379C203.58 233.658 203.94 236.799 201.996 236.799C200.052 236.799 197.613 233.379 196.515 237.06C195.417 240.741 198.432 246.258 200.349 248.355C202.266 250.452 206.649 249.93 212.661 249.93C218.673 249.93 218.7 244.071 218.7 244.071Z" fill="#0C9A61" stroke="#263238" stroke-width="0.9" stroke-linecap="round" stroke-linejoin="round"/>
<path d="M212.661 249.93L214.56 242.352" stroke="#263238" stroke-width="0.9" stroke-linecap="round" stroke-linejoin="round"/>
<path d="M209.799 249.75L209.349 237.348" stroke="#263238" stroke-width="0.9" stroke-linecap="round" stroke-linejoin="round"/>
<path d="M199.98 253.206C204.26 253.206 207.729 251.002 207.729 248.283C207.729 245.564 204.26 243.36 199.98 243.36C195.701 243.36 192.231 245.564 192.231 248.283C192.231 251.002 195.701 253.206 199.98 253.206Z" fill="#808080" stroke="#263238" stroke-width="0.9" stroke-linecap="round" stroke-linejoin="round"/>
<path d="M199.8 247.41C199.8 247.41 197.649 244.836 198.279 244.233C198.909 243.63 201.879 243.459 202.239 244.341C202.599 245.223 199.8 247.41 199.8 247.41Z" fill="white"/>
<path d="M198.901 247.752C198.901 247.752 194.401 247.32 193.987 246.645C193.573 245.97 195.148 244.35 196.471 244.683C197.794 245.016 198.901 247.752 198.901 247.752Z" fill="white"/>
<path d="M198.693 248.4C198.693 248.4 195.264 250.326 194.193 250.074C193.122 249.822 192.168 248.04 193.428 247.608C194.688 247.176 198.693 248.4 198.693 248.4Z" fill="white"/>
<path d="M199.377 248.931C199.377 248.931 199.494 251.838 198.477 252.198C197.46 252.558 194.715 251.874 195.003 250.983C195.291 250.092 199.377 248.931 199.377 248.931Z" fill="white"/>
<path d="M200.43 248.922C200.43 248.922 204.03 250.722 203.805 251.451C203.58 252.18 200.997 253.071 200.115 252.351C199.233 251.631 200.43 248.922 200.43 248.922Z" fill="white"/>
<path d="M201.105 248.4C201.105 248.4 205.605 247.824 206.316 248.4C207.027 248.976 206.469 250.803 205.038 250.785C203.607 250.767 201.105 248.4 201.105 248.4Z" fill="white"/>
<path d="M200.917 247.752C200.917 247.752 203.104 245.196 204.247 245.196C205.39 245.196 207.244 246.672 206.29 247.356C205.336 248.04 200.917 247.752 200.917 247.752Z" fill="white"/>
<path d="M202.716 248.184C202.716 248.184 206.316 242.784 215.208 241.884C215.208 241.884 219.564 243.189 217.818 243.405C216.072 243.621 209.556 242.964 204.318 248.409C199.08 253.854 202.716 248.184 202.716 248.184Z" fill="white" stroke="#263238" stroke-width="0.9" stroke-linecap="round" stroke-linejoin="round"/>
<path d="M223.614 250.101C223.614 252.621 220.149 254.673 215.865 254.673C211.581 254.673 208.116 252.621 208.116 250.101C208.116 247.581 211.581 245.538 215.865 245.538C220.149 245.538 223.614 247.581 223.614 250.101Z" fill="#808080" stroke="#263238" stroke-width="0.9" stroke-linecap="round" stroke-linejoin="round"/>
<path d="M215.695 249.3C215.695 249.3 213.544 246.915 214.174 246.357C214.804 245.799 217.774 245.646 218.134 246.456C218.494 247.266 215.695 249.3 215.695 249.3Z" fill="white"/>
<path d="M214.758 249.615C214.758 249.615 210.258 249.21 209.853 248.58C209.448 247.95 211.005 246.456 212.337 246.78C213.669 247.104 214.758 249.615 214.758 249.615Z" fill="white"/>
<path d="M214.579 250.2C214.579 250.2 211.15 252 210.079 251.757C209.008 251.514 208.054 249.867 209.305 249.462C210.556 249.057 214.579 250.2 214.579 250.2Z" fill="white"/>
<path d="M215.263 250.704C215.263 250.704 215.38 253.404 214.363 253.728C213.346 254.052 210.61 253.431 210.898 252.603C211.186 251.775 215.263 250.704 215.263 250.704Z" fill="white"/>
<path d="M216.315 250.695C216.315 250.695 219.915 252.378 219.699 253.035C219.483 253.692 216.891 254.538 216 253.881C215.109 253.224 216.315 250.695 216.315 250.695Z" fill="white"/>
<path d="M216.99 250.2C216.99 250.2 221.49 249.669 222.21 250.2C222.93 250.731 222.354 252.432 220.923 252.414C219.492 252.396 216.99 250.2 216.99 250.2Z" fill="white"/>
<path d="M216.802 249.606C216.802 249.606 218.998 247.239 220.132 247.248C221.266 247.257 223.129 248.616 222.184 249.246C221.239 249.876 216.802 249.606 216.802 249.606Z" fill="white"/>
<path d="M240.363 250.317C240.363 252.846 236.898 254.889 232.614 254.889C228.33 254.889 224.865 252.846 224.865 250.317C224.865 247.788 228.339 245.754 232.614 245.754C236.889 245.754 240.363 247.797 240.363 250.317Z" fill="#808080" stroke="#263238" stroke-width="0.9" stroke-linecap="round" stroke-linejoin="round"/>
<path d="M232.443 249.507C232.443 249.507 230.292 247.122 230.931 246.573C231.57 246.024 234.531 245.853 234.891 246.663C235.251 247.473 232.443 249.507 232.443 249.507Z" fill="white"/>
<path d="M231.516 249.831C231.516 249.831 227.016 249.435 226.602 248.796C226.188 248.157 227.754 246.672 229.086 246.996C230.418 247.32 231.516 249.831 231.516 249.831Z" fill="white"/>
<path d="M231.3 250.443C231.3 250.443 227.862 252.243 226.8 252C225.738 251.757 224.775 250.11 226.035 249.705C227.295 249.3 231.3 250.443 231.3 250.443Z" fill="white"/>
<path d="M232.011 250.92C232.011 250.92 232.128 253.62 231.111 253.944C230.094 254.268 227.358 253.647 227.646 252.819C227.934 251.991 232.011 250.92 232.011 250.92Z" fill="white"/>
<path d="M233.101 250.92C233.101 250.92 236.701 252.594 236.485 253.26C236.269 253.926 233.677 254.754 232.786 254.097C231.895 253.44 233.101 250.92 233.101 250.92Z" fill="white"/>
<path d="M233.739 250.443C233.739 250.443 238.239 249.903 238.959 250.443C239.679 250.983 239.103 252.675 237.681 252.657C236.259 252.639 233.739 250.443 233.739 250.443Z" fill="white"/>
<path d="M233.56 249.831C233.56 249.831 235.747 247.455 236.881 247.464C238.015 247.473 239.878 248.832 238.933 249.462C237.988 250.092 233.56 249.831 233.56 249.831Z" fill="white"/>
<path d="M223.389 243.405C223.389 243.405 221.121 249.471 212.589 252.315C212.589 252.315 208.089 252.018 209.709 251.415C211.329 250.812 217.863 249.984 221.733 243.513C225.603 237.042 223.389 243.405 223.389 243.405Z" fill="white" stroke="#263238" stroke-width="0.9" stroke-linecap="round" stroke-linejoin="round"/>
<path d="M244.035 245.7C244.035 245.7 241.767 251.766 233.235 254.61C233.235 254.61 228.735 254.313 230.355 253.71C231.975 253.107 238.509 252.279 242.379 245.817C246.249 239.355 244.035 245.7 244.035 245.7Z" fill="white" stroke="#263238" stroke-width="0.9" stroke-linecap="round" stroke-linejoin="round"/>
<path d="M189.585 252.792C189.585 252.792 184.581 250.182 188.505 249.309C192.429 248.436 194.373 253.224 195.246 250.839C196.119 248.454 197.334 247.059 200.097 247.752C202.86 248.445 200.097 250.758 202.986 251.451C205.875 252.144 203.256 246.843 208.494 249.489C213.732 252.135 212.211 255.402 215.046 255.618C217.881 255.834 217.431 250.398 221.13 251.055C224.829 251.712 223.092 252.576 225.486 253.008C227.88 253.44 228.312 251.055 230.706 252.576C233.1 254.097 234.621 255.618 235.926 254.754C237.231 253.89 236.826 252.792 239.193 252.36C241.56 251.928 241.803 251.055 243.54 248.877C245.277 246.699 247.896 249.777 250.506 249.777C253.116 249.777 253.332 249.777 254.637 247.167C254.997 246.422 255.55 245.787 256.239 245.328C256.927 244.869 257.726 244.603 258.552 244.557C258.552 244.557 260.73 246.726 257.904 249.336C255.078 251.946 243.972 258.039 235.278 258.912C226.584 259.785 214.389 260.865 203.733 259.344C193.077 257.823 189.585 252.792 189.585 252.792Z" fill="#0C9A61" stroke="#263238" stroke-width="0.9" stroke-linecap="round" stroke-linejoin="round"/>
<path d="M228.825 246.447C228.825 246.447 232.425 241.047 241.317 240.147C241.317 240.147 245.673 241.452 243.927 241.668C242.181 241.884 235.665 241.236 230.427 246.672C225.189 252.108 228.825 246.447 228.825 246.447Z" fill="white" stroke="#263238" stroke-width="0.9" stroke-linecap="round" stroke-linejoin="round"/>
</g>
<path d="M209.061 102.492C209.061 102.492 188.496 111.672 185.661 118.944C182.826 126.216 184.401 133.506 181.863 141.732C179.325 149.958 173.952 154.071 178.065 165.78C182.178 177.489 196.425 182.547 202.122 185.085C207.527 187.498 213.655 187.724 219.222 185.715C224.622 183.816 240.741 171.477 240.741 171.477C240.741 171.477 242.325 173.691 249.282 171.162C256.239 168.633 260.082 155.97 258.147 150.273C256.212 144.576 247.698 148.689 247.698 148.689C247.698 148.689 206.532 124.326 209.061 102.492Z" fill="white"/>
<mask id="mask7_153_1945" style="mask-type:luminance" maskUnits="userSpaceOnUse" x="176" y="102" width="83" height="86">
<path d="M209.061 102.492C209.061 102.492 188.496 111.672 185.661 118.944C182.826 126.216 184.401 133.506 181.863 141.732C179.325 149.958 173.952 154.071 178.065 165.78C182.178 177.489 196.425 182.547 202.122 185.085C207.527 187.498 213.655 187.724 219.222 185.715C224.622 183.816 240.741 171.477 240.741 171.477C240.741 171.477 242.325 173.691 249.282 171.162C256.239 168.633 260.082 155.97 258.147 150.273C256.212 144.576 247.698 148.689 247.698 148.689C247.698 148.689 206.532 124.326 209.061 102.492Z" fill="white"/>
</mask>
<g mask="url(#mask7_153_1945)">
<path opacity="0.1" d="M247.662 148.689C240.649 144.381 234.002 139.501 227.79 134.1C229.509 140.463 233.01 155.034 232.119 165.231C230.958 178.605 218.745 183.843 208.278 185.031C206.874 185.184 206.19 185.688 206.046 186.435C210.401 187.489 214.969 187.245 219.186 185.733C224.586 183.834 240.705 171.495 240.705 171.495C240.705 171.495 242.289 173.709 249.246 171.18C256.203 168.651 260.046 155.988 258.111 150.291C256.176 144.594 247.662 148.689 247.662 148.689Z" fill="black"/>
</g>
<path d="M209.061 102.492C209.061 102.492 188.496 111.672 185.661 118.944C182.826 126.216 184.401 133.506 181.863 141.732C179.325 149.958 173.952 154.071 178.065 165.78C182.178 177.489 196.425 182.547 202.122 185.085C207.527 187.498 213.655 187.724 219.222 185.715C224.622 183.816 240.741 171.477 240.741 171.477C240.741 171.477 242.325 173.691 249.282 171.162C256.239 168.633 260.082 155.97 258.147 150.273C256.212 144.576 247.698 148.689 247.698 148.689C247.698 148.689 206.532 124.326 209.061 102.492Z" stroke="#263238" stroke-width="0.9" stroke-linecap="round" stroke-linejoin="round"/>
<path d="M200.835 136.98C200.38 139.318 199.154 141.435 197.352 142.992C194.508 145.206 192.294 146.79 195.138 149.292C197.982 151.794 200.205 150.867 200.205 150.867" stroke="#263238" stroke-width="0.9" stroke-linecap="round" stroke-linejoin="round"/>
<path d="M197.037 159.453C197.037 159.453 202.104 162.927 209.376 157.869" stroke="#263238" stroke-width="0.9" stroke-linecap="round" stroke-linejoin="round"/>
<path d="M208.746 155.34C208.746 155.34 208.116 156.915 210.96 159.768" stroke="#263238" stroke-width="0.9" stroke-linecap="round" stroke-linejoin="round"/>
<path d="M187.542 137.295C188.865 136.407 190.435 135.96 192.028 136.018C193.62 136.076 195.153 136.637 196.407 137.619" stroke="#263238" stroke-width="0.9" stroke-linecap="round" stroke-linejoin="round"/>
<path d="M209.7 138.249C209.7 138.249 213.498 134.766 219.195 138.879" stroke="#263238" stroke-width="0.9" stroke-linecap="round" stroke-linejoin="round"/>
<path d="M187.857 128.439C187.857 128.439 192.294 122.742 197.982 125.271" stroke="#263238" stroke-width="2.7" stroke-linecap="round" stroke-linejoin="round"/>
<path d="M206.532 125.595C206.532 125.595 212.544 122.112 217.926 128.439" stroke="#263238" stroke-width="2.7" stroke-linecap="round" stroke-linejoin="round"/>
<path d="M311.769 318.438C309.374 314.391 306.115 310.922 302.226 308.277C298.337 305.633 293.913 303.878 289.269 303.138C273.222 300.438 258.156 299.925 252.72 297.207C247.284 294.489 244.575 288.567 241.605 284.607C238.109 280.335 233.938 276.662 229.257 273.735C225.558 271.512 223.578 273.249 224.316 275.715C225.054 278.181 227.781 279.666 229.716 282.627C230.989 284.68 231.902 286.935 232.416 289.296C232.416 289.296 227.727 290.034 218.088 283.374C208.449 276.714 201.303 272.007 200.313 274.23C199.721 275.458 199.547 276.845 199.818 278.181C199.818 278.181 195.12 275.22 194.418 278.433C193.716 281.646 199.602 288.333 199.602 288.333C199.602 288.333 201.339 290.808 204.048 294.264C207.644 299.196 212.811 302.757 218.7 304.362C226.854 306.828 233.766 309.051 238.212 311.031C242.658 313.011 269.82 333.009 287.361 338.445C304.902 343.881 313.047 336.465 316.251 330.291C318.188 326.392 318.96 322.017 318.474 317.691" fill="white"/>
<mask id="mask8_153_1945" style="mask-type:luminance" maskUnits="userSpaceOnUse" x="194" y="272" width="125" height="69">
<path d="M311.769 318.438C309.374 314.391 306.115 310.922 302.226 308.277C298.337 305.633 293.913 303.878 289.269 303.138C273.222 300.438 258.156 299.925 252.72 297.207C247.284 294.489 244.575 288.567 241.605 284.607C238.109 280.335 233.938 276.662 229.257 273.735C225.558 271.512 223.578 273.249 224.316 275.715C225.054 278.181 227.781 279.666 229.716 282.627C230.989 284.68 231.902 286.935 232.416 289.296C232.416 289.296 227.727 290.034 218.088 283.374C208.449 276.714 201.303 272.007 200.313 274.23C199.721 275.458 199.547 276.845 199.818 278.181C199.818 278.181 195.12 275.22 194.418 278.433C193.716 281.646 199.602 288.333 199.602 288.333C199.602 288.333 201.339 290.808 204.048 294.264C207.644 299.196 212.811 302.757 218.7 304.362C226.854 306.828 233.766 309.051 238.212 311.031C242.658 313.011 269.82 333.009 287.361 338.445C304.902 343.881 313.047 336.465 316.251 330.291C318.188 326.392 318.96 322.017 318.474 317.691" fill="white"/>
</mask>
<g mask="url(#mask8_153_1945)">
<path opacity="0.1" d="M318.438 317.7L311.769 318.438C311.262 317.496 310.685 316.593 310.041 315.738C309.136 318.154 307.759 320.366 305.991 322.245C294.354 334.458 284.283 324.558 271.674 319.923C259.065 315.288 233.874 302.472 221.076 303.057C218.95 303.153 216.82 303.084 214.704 302.85C215.99 303.432 217.313 303.928 218.664 304.335C226.818 306.801 233.73 309.024 238.176 311.004C242.622 312.984 269.784 332.982 287.325 338.418C304.866 343.854 313.011 336.438 316.215 330.264C318.145 326.376 318.917 322.015 318.438 317.7Z" fill="black"/>
</g>
<path d="M311.769 318.438C309.374 314.391 306.115 310.922 302.226 308.277C298.337 305.633 293.913 303.878 289.269 303.138C273.222 300.438 258.156 299.925 252.72 297.207C247.284 294.489 244.575 288.567 241.605 284.607C238.109 280.335 233.938 276.662 229.257 273.735C225.558 271.512 223.578 273.249 224.316 275.715C225.054 278.181 227.781 279.666 229.716 282.627C230.989 284.68 231.902 286.935 232.416 289.296C232.416 289.296 227.727 290.034 218.088 283.374C208.449 276.714 201.303 272.007 200.313 274.23C199.721 275.458 199.547 276.845 199.818 278.181C199.818 278.181 195.12 275.22 194.418 278.433C193.716 281.646 199.602 288.333 199.602 288.333C199.602 288.333 201.339 290.808 204.048 294.264C207.644 299.196 212.811 302.757 218.7 304.362C226.854 306.828 233.766 309.051 238.212 311.031C242.658 313.011 269.82 333.009 287.361 338.445C304.902 343.881 313.047 336.465 316.251 330.291C318.188 326.392 318.96 322.017 318.474 317.691" stroke="#263238" stroke-width="0.9" stroke-linecap="round" stroke-linejoin="round"/>
<path d="M199.899 278.181C199.899 278.181 210.429 287.046 212.823 289.17C214.578 290.613 216.545 291.776 218.655 292.617" stroke="#263238" stroke-width="0.9" stroke-linecap="round" stroke-linejoin="round"/>
<path d="M196.623 282.798C196.623 282.798 206.712 294.498 213.354 297.396" stroke="#263238" stroke-width="0.9" stroke-linecap="round" stroke-linejoin="round"/>
</svg>
