<svg width="16" height="16" viewBox="0 0 16 16" fill="none" xmlns="http://www.w3.org/2000/svg">
<circle cx="8" cy="8" r="8" fill="#25D366"/>
<path d="M11.5249 4.455C11.0665 3.99196 10.5205 3.62483 9.91872 3.37502C9.31695 3.12522 8.67146 2.99773 8.0199 3C5.2899 3 3.0649 5.225 3.0649 7.955C3.0649 8.83 3.2949 9.68 3.7249 10.43L3.0249 13L5.6499 12.31C6.3749 12.705 7.1899 12.915 8.0199 12.915C10.7499 12.915 12.9749 10.69 12.9749 7.96C12.9749 6.635 12.4599 5.39 11.5249 4.455ZM8.0199 12.075C7.2799 12.075 6.5549 11.875 5.9199 11.5L5.7699 11.41L4.2099 11.82L4.6249 10.3L4.5249 10.145C4.11378 9.48848 3.89547 8.72962 3.8949 7.955C3.8949 5.685 5.7449 3.835 8.0149 3.835C9.1149 3.835 10.1499 4.265 10.9249 5.045C11.3086 5.42698 11.6128 5.88133 11.8196 6.38171C12.0264 6.88209 12.1319 7.41855 12.1299 7.96C12.1399 10.23 10.2899 12.075 8.0199 12.075ZM10.2799 8.995C10.1549 8.935 9.5449 8.635 9.4349 8.59C9.3199 8.55 9.2399 8.53 9.1549 8.65C9.0699 8.775 8.8349 9.055 8.7649 9.135C8.6949 9.22 8.6199 9.23 8.4949 9.165C8.3699 9.105 7.9699 8.97 7.4999 8.55C7.1299 8.22 6.8849 7.815 6.8099 7.69C6.7399 7.565 6.7999 7.5 6.8649 7.435C6.9199 7.38 6.9899 7.29 7.0499 7.22C7.1099 7.15 7.1349 7.095 7.1749 7.015C7.2149 6.93 7.1949 6.86 7.1649 6.8C7.1349 6.74 6.8849 6.13 6.7849 5.88C6.6849 5.64 6.5799 5.67 6.5049 5.665H6.2649C6.1799 5.665 6.0499 5.695 5.9349 5.82C5.8249 5.945 5.5049 6.245 5.5049 6.855C5.5049 7.465 5.9499 8.055 6.0099 8.135C6.0699 8.22 6.8849 9.47 8.1249 10.005C8.4199 10.135 8.6499 10.21 8.8299 10.265C9.1249 10.36 9.3949 10.345 9.6099 10.315C9.8499 10.28 10.3449 10.015 10.4449 9.725C10.5499 9.435 10.5499 9.19 10.5149 9.135C10.4799 9.08 10.4049 9.055 10.2799 8.995Z" fill="white"/>
</svg>
